<svg xmlns="http://www.w3.org/2000/svg" width="20" height="14" viewBox="0 0 20 14">
  <metadata><?xpacket begin="﻿" id="W5M0MpCehiHzreSzNTczkc9d"?>
<x:xmpmeta xmlns:x="adobe:ns:meta/" x:xmptk="Adobe XMP Core 5.6-c140 79.160451, 2017/05/06-01:08:21        ">
   <rdf:RDF xmlns:rdf="http://www.w3.org/1999/02/22-rdf-syntax-ns#">
      <rdf:Description rdf:about=""/>
   </rdf:RDF>
</x:xmpmeta>
                                                                                                    
                                                                                                    
                                                                                                    
                                                                                                    
                                                                                                    
                                                                                                    
                                                                                                    
                                                                                                    
                                                                                                    
                                                                                                    
                                                                                                    
                                                                                                    
                                                                                                    
                                                                                                    
                                                                                                    
                                                                                                    
                                                                                                    
                                                                                                    
                                                                                                    
                                                                                                    
                           
<?xpacket end="w"?></metadata>
<defs>
    <style>
      .cls-1 {
        fill: #fff;
        fill-rule: evenodd;
      }
    </style>
  </defs>
  <path id="t_のコピー" data-name="t のコピー" class="cls-1" d="M5666.73,7609.23a2.433,2.433,0,0,0,2.18-1.32,3.56,3.56,0,0,1-2.36.27c-0.03-.17-0.07-0.33-0.1-0.47-0.53-1.97-2.35-3.56-4.24-3.37,0.15-.06.3-0.12,0.46-0.18,0.21-.07,1.43-0.27,1.24-0.71-0.16-.39-1.66.29-1.94,0.38a1.513,1.513,0,0,0,1.05-.82,2.926,2.926,0,0,0-1.56.75,1.1,1.1,0,0,0,.3-0.61c-1.52.99-2.41,2.98-3.13,4.91a7.366,7.366,0,0,0-1.52-1.23,37.439,37.439,0,0,0-5.13-2.3,2.783,2.783,0,0,0,1.71,2.56,3.869,3.869,0,0,0-1.23.15,2.522,2.522,0,0,0,2.24,2.02,1.818,1.818,0,0,0-1.37.55,2.307,2.307,0,0,0,2.46,1.22c-1.53.68-.62,1.92,0.63,1.73a5.252,5.252,0,0,1-7.42.21c5.04,6.96,15.98,4.12,17.61-2.6a3,3,0,0,0,2.39-.91A4.838,4.838,0,0,1,5666.73,7609.23Z" transform="translate(-5649 -7603)"/>
</svg>
